<svg width="44" height="44" viewBox="0 0 44 44" fill="none" xmlns="http://www.w3.org/2000/svg">
<path d="M39.5 43.875H4.5C3.3401 43.8736 2.22811 43.4122 1.40794 42.5921C0.587772 41.7719 0.126389 40.6599 0.125 39.5V37.75C0.125 37.5179 0.217187 37.2954 0.381282 37.1313C0.545376 36.9672 0.767936 36.875 1 36.875H43C43.2321 36.875 43.4546 36.9672 43.6187 37.1313C43.7828 37.2954 43.875 37.5179 43.875 37.75V39.5C43.8736 40.6599 43.4122 41.7719 42.5921 42.5921C41.7719 43.4122 40.6599 43.8736 39.5 43.875ZM1.875 38.625V39.5C1.875 40.1962 2.15156 40.8639 2.64384 41.3562C3.13613 41.8484 3.80381 42.125 4.5 42.125H39.5C40.1962 42.125 40.8639 41.8484 41.3562 41.3562C41.8484 40.8639 42.125 40.1962 42.125 39.5V38.625H1.875Z" fill="white"/>
<path d="M25.5 41.25H18.5C18.2679 41.25 18.0454 41.1578 17.8813 40.9937C17.7172 40.8296 17.625 40.6071 17.625 40.375V37.75C17.625 37.5179 17.7172 37.2954 17.8813 37.1313C18.0454 36.9672 18.2679 36.875 18.5 36.875C18.7321 36.875 18.9546 36.9672 19.1187 37.1313C19.2828 37.2954 19.375 37.5179 19.375 37.75V39.5H24.625V37.75C24.625 37.5179 24.7172 37.2954 24.8813 37.1313C25.0454 36.9672 25.2679 36.875 25.5 36.875C25.7321 36.875 25.9546 36.9672 26.1187 37.1313C26.2828 37.2954 26.375 37.5179 26.375 37.75V40.375C26.375 40.6071 26.2828 40.8296 26.1187 40.9937C25.9546 41.1578 25.7321 41.25 25.5 41.25Z" fill="white"/>
<path d="M41.25 38.625H2.75C2.51794 38.625 2.29538 38.5328 2.13128 38.3687C1.96719 38.2046 1.875 37.9821 1.875 37.75V8C1.875 7.76794 1.96719 7.54538 2.13128 7.38128C2.29538 7.21719 2.51794 7.125 2.75 7.125H9.75C9.98206 7.125 10.2046 7.21719 10.3687 7.38128C10.5328 7.54538 10.625 7.76794 10.625 8C10.625 8.23206 10.5328 8.45462 10.3687 8.61872C10.2046 8.78281 9.98206 8.875 9.75 8.875H3.625V36.875H40.375V8.875H37.75C37.5179 8.875 37.2954 8.78281 37.1313 8.61872C36.9672 8.45462 36.875 8.23206 36.875 8C36.875 7.76794 36.9672 7.54538 37.1313 7.38128C37.2954 7.21719 37.5179 7.125 37.75 7.125H41.25C41.4821 7.125 41.7046 7.21719 41.8687 7.38128C42.0328 7.54538 42.125 7.76794 42.125 8V37.75C42.125 37.9821 42.0328 38.2046 41.8687 38.3687C41.7046 38.5328 41.4821 38.625 41.25 38.625Z" fill="white"/>
<path d="M34.25 32.5H9.75C9.51794 32.5 9.29538 32.4078 9.13128 32.2437C8.96719 32.0796 8.875 31.8571 8.875 31.625V1C8.875 0.767936 8.96719 0.545376 9.13128 0.381282C9.29538 0.217187 9.51794 0.125 9.75 0.125H34.25C34.4821 0.125 34.7046 0.217187 34.8687 0.381282C35.0328 0.545376 35.125 0.767936 35.125 1V31.625C35.125 31.8571 35.0328 32.0796 34.8687 32.2437C34.7046 32.4078 34.4821 32.5 34.25 32.5ZM10.625 30.75H33.375V1.875H10.625V30.75Z" fill="white"/>
<path d="M17.6248 15C17.3928 14.9999 17.1702 14.9077 17.0062 14.7436L13.5062 11.2436C13.3422 11.0795 13.25 10.857 13.25 10.625C13.25 10.393 13.3422 10.1705 13.5062 10.0064L17.0062 6.50637C17.1712 6.34698 17.3922 6.25878 17.6217 6.26078C17.8511 6.26277 18.0705 6.35479 18.2328 6.51702C18.395 6.67926 18.487 6.89872 18.489 7.12814C18.491 7.35756 18.4028 7.57859 18.2434 7.74361L15.3621 10.625L18.2434 13.5064C18.3658 13.6287 18.4491 13.7846 18.4828 13.9543C18.5166 14.124 18.4992 14.3 18.433 14.4598C18.3668 14.6197 18.2547 14.7563 18.1108 14.8525C17.967 14.9486 17.7978 15 17.6248 15Z" fill="white"/>
<path d="M26.3748 15C26.2018 15 26.0326 14.9486 25.8888 14.8525C25.7449 14.7563 25.6328 14.6197 25.5666 14.4598C25.5004 14.3 25.4831 14.124 25.5168 13.9543C25.5506 13.7846 25.6339 13.6287 25.7562 13.5064L28.6376 10.625L25.7562 7.74361C25.5968 7.57859 25.5086 7.35756 25.5106 7.12814C25.5126 6.89872 25.6046 6.67926 25.7668 6.51702C25.9291 6.35479 26.1485 6.26277 26.378 6.26078C26.6074 6.25878 26.8284 6.34698 26.9934 6.50637L30.4934 10.0064C30.6575 10.1705 30.7496 10.393 30.7496 10.625C30.7496 10.857 30.6575 11.0795 30.4934 11.2436L26.9934 14.7436C26.8294 14.9077 26.6069 14.9999 26.3748 15Z" fill="white"/>
<path d="M20.2505 15.0004C20.1014 15.0003 19.9548 14.9621 19.8246 14.8895C19.6944 14.8168 19.585 14.7121 19.5066 14.5853C19.4282 14.4584 19.3836 14.3137 19.3769 14.1647C19.3702 14.0158 19.4016 13.8676 19.4683 13.7342L22.9683 6.73424C23.072 6.52654 23.254 6.36856 23.4742 6.29505C23.6944 6.22153 23.9348 6.23851 24.1425 6.34224C24.3502 6.44597 24.5082 6.62797 24.5817 6.84818C24.6552 7.06839 24.6382 7.30879 24.5345 7.51649L21.0345 14.5165C20.9618 14.6621 20.8498 14.7845 20.7114 14.87C20.5729 14.9554 20.4133 15.0006 20.2505 15.0004Z" fill="white"/>
<path d="M26.375 19.375H17.625C17.3929 19.375 17.1704 19.2828 17.0063 19.1187C16.8422 18.9546 16.75 18.7321 16.75 18.5C16.75 18.2679 16.8422 18.0454 17.0063 17.8813C17.1704 17.7172 17.3929 17.625 17.625 17.625H26.375C26.6071 17.625 26.8296 17.7172 26.9937 17.8813C27.1578 18.0454 27.25 18.2679 27.25 18.5C27.25 18.7321 27.1578 18.9546 26.9937 19.1187C26.8296 19.2828 26.6071 19.375 26.375 19.375Z" fill="white"/>
<path d="M26.375 23.75H17.625C17.3929 23.75 17.1704 23.6578 17.0063 23.4937C16.8422 23.3296 16.75 23.1071 16.75 22.875C16.75 22.6429 16.8422 22.4204 17.0063 22.2563C17.1704 22.0922 17.3929 22 17.625 22H26.375C26.6071 22 26.8296 22.0922 26.9937 22.2563C27.1578 22.4204 27.25 22.6429 27.25 22.875C27.25 23.1071 27.1578 23.3296 26.9937 23.4937C26.8296 23.6578 26.6071 23.75 26.375 23.75Z" fill="white"/>
<path d="M26.375 28.125H17.625C17.3929 28.125 17.1704 28.0328 17.0063 27.8687C16.8422 27.7046 16.75 27.4821 16.75 27.25C16.75 27.0179 16.8422 26.7954 17.0063 26.6313C17.1704 26.4672 17.3929 26.375 17.625 26.375H26.375C26.6071 26.375 26.8296 26.4672 26.9937 26.6313C27.1578 26.7954 27.25 27.0179 27.25 27.25C27.25 27.4821 27.1578 27.7046 26.9937 27.8687C26.8296 28.0328 26.6071 28.125 26.375 28.125Z" fill="white"/>
</svg>
