<svg width="43" height="40" viewBox="0 0 43 40" fill="none" xmlns="http://www.w3.org/2000/svg">
<path d="M21.9999 0.839844C16.7086 0.839844 12.3999 5.14859 12.3999 10.4398C12.3999 13.5973 13.9674 16.3686 16.3299 18.1198L11.5599 25.9798C10.5849 25.6911 9.50113 25.7661 8.55988 26.3098C6.73363 27.3636 6.09613 29.7336 7.14988 31.5599C8.20363 33.3861 10.5736 34.0236 12.3999 32.9699C14.2261 31.9161 14.8636 29.5461 13.8099 27.7199C13.6449 27.4349 13.4311 27.1948 13.2099 26.9699L18.4299 18.3898L18.9399 17.5498L18.0999 17.0698C15.8386 15.7348 14.3199 13.2636 14.3199 10.4398C14.3199 6.18735 17.7474 2.75984 21.9999 2.75984C26.2524 2.75984 29.6799 6.18735 29.6799 10.4398C29.6799 11.2311 29.5711 11.9736 29.3499 12.6898L31.1799 13.2598C31.4574 12.3636 31.5999 11.4223 31.5999 10.4398C31.5999 5.14859 27.2911 0.839844 21.9999 0.839844ZM21.9999 6.59984C19.8886 6.59984 18.1599 8.3286 18.1599 10.4398C18.1599 12.5511 19.8886 14.2798 21.9999 14.2798C22.3186 14.2798 22.6336 14.2348 22.9299 14.1598L27.5499 22.5298L27.9999 23.3698L28.8699 22.9198C29.9686 22.3123 31.2136 21.9598 32.5599 21.9598C36.8124 21.9598 40.2399 25.3874 40.2399 29.6399C40.2399 33.8924 36.8124 37.3199 32.5599 37.3199C30.4861 37.3199 28.6036 36.4911 27.2199 35.1599L25.8999 36.5399C27.6249 38.2011 29.9799 39.2399 32.5599 39.2399C37.8511 39.2399 42.1599 34.9311 42.1599 29.6399C42.1599 24.3486 37.8511 20.0398 32.5599 20.0398C31.2286 20.0398 29.9949 20.3886 28.8399 20.8798L24.6099 13.1998C25.3524 12.4986 25.8399 11.5311 25.8399 10.4398C25.8399 8.3286 24.1111 6.59984 21.9999 6.59984ZM21.9999 8.51985C23.0724 8.51985 23.9199 9.36735 23.9199 10.4398C23.9199 11.5123 23.0724 12.3598 21.9999 12.3598C20.9274 12.3598 20.0799 11.5123 20.0799 10.4398C20.0799 9.36735 20.9274 8.51985 21.9999 8.51985ZM8.13988 20.3098C3.95863 21.3523 0.879883 25.1511 0.879883 29.6399C0.879883 34.9311 5.18863 39.2399 10.4799 39.2399C15.4299 39.2399 19.3936 35.4186 19.8999 30.5998H28.8699C29.2974 32.2499 30.7824 33.4799 32.5599 33.4799C34.6711 33.4799 36.3999 31.7511 36.3999 29.6399C36.3999 27.5286 34.6711 25.7998 32.5599 25.7998C30.7824 25.7998 29.2974 27.0299 28.8699 28.6798H18.1599V29.6399C18.1599 33.8924 14.7324 37.3199 10.4799 37.3199C6.22738 37.3199 2.79988 33.8924 2.79988 29.6399C2.79988 26.0324 5.28238 23.0323 8.61988 22.1998L8.13988 20.3098ZM10.2399 27.7199C10.9824 27.6261 11.7286 27.9823 12.1299 28.6798C12.6661 29.6098 12.3699 30.7536 11.4399 31.2899C10.5099 31.8261 9.36613 31.5299 8.82988 30.5998C8.29363 29.6698 8.58988 28.5261 9.51988 27.9898C9.75238 27.8549 9.99238 27.7498 10.2399 27.7199ZM32.5599 27.7199C33.6324 27.7199 34.4799 28.5674 34.4799 29.6399C34.4799 30.7124 33.6324 31.5599 32.5599 31.5599C31.4874 31.5599 30.6399 30.7124 30.6399 29.6399C30.6399 28.5674 31.4874 27.7199 32.5599 27.7199Z" fill="white"/>
</svg>
