<svg width="48" height="48" viewBox="0 0 48 48" fill="none" xmlns="http://www.w3.org/2000/svg">
<path d="M46.4516 6.19355H21.6774V7.74194H20.129V3.87097C20.129 1.73652 21.8655 0 24 0H44.129C46.2635 0 48 1.73652 48 3.87097V38.7097H46.4516V6.19355ZM46.4516 3.87097C46.4516 2.59045 45.4095 1.54839 44.129 1.54839H24C22.7195 1.54839 21.6774 2.59045 21.6774 3.87097V4.64516H46.4516V3.87097Z" fill="white"/>
<path d="M48 44.1288C48 46.2632 46.2635 47.9998 44.129 47.9998H24C21.8655 47.9998 20.129 46.2632 20.129 44.1288V40.2578H48V44.1288ZM46.4516 41.8062H21.6774V44.1288C21.6774 45.4093 22.7195 46.4514 24 46.4514H44.129C45.4095 46.4514 46.4516 45.4093 46.4516 44.1288V41.8062Z" fill="white"/>
<path d="M30.1936 43.3545H37.9355V44.9029H30.1936V43.3545Z" fill="white"/>
<path d="M13.1615 24C15.7233 24 17.8066 26.0834 17.8066 28.6452C17.8066 31.207 15.7233 33.2903 13.1615 33.2903C10.5997 33.2903 8.51632 31.207 8.51632 28.6452C8.51632 26.0834 10.5997 24 13.1615 24ZM13.1615 31.7419C14.8694 31.7419 16.2583 30.353 16.2583 28.6452C16.2583 26.9373 14.8694 25.5484 13.1615 25.5484C11.4536 25.5484 10.0647 26.9373 10.0647 28.6452C10.0647 30.353 11.4536 31.7419 13.1615 31.7419Z" fill="white"/>
<path d="M34.839 13.9355C36.9734 13.9355 38.71 15.6721 38.71 17.8065C38.71 19.941 36.9734 21.6775 34.839 21.6775C32.7045 21.6775 30.968 19.941 30.968 17.8065C30.968 15.6721 32.7045 13.9355 34.839 13.9355ZM34.839 20.1291C36.1195 20.1291 37.1616 19.087 37.1616 17.8065C37.1616 16.526 36.1195 15.4839 34.839 15.4839C33.5585 15.4839 32.5164 16.526 32.5164 17.8065C32.5164 19.087 33.5585 20.1291 34.839 20.1291Z" fill="white"/>
<path d="M32.0901 25.0456C31.9477 24.9914 31.806 24.9318 31.6651 24.8676L29.2651 26.4678L26.1776 23.3803L27.7779 20.9803C27.7136 20.8386 27.654 20.697 27.5998 20.5553L24.774 19.9901V15.6237L27.5998 15.0585C27.709 14.7759 27.8375 14.4934 27.9838 14.2139L29.3541 14.9346C29.1753 15.2761 29.0297 15.6221 28.9244 15.9612L28.7874 16.4002L26.3224 16.8934V18.7205L28.7882 19.2136L28.9252 19.6526C29.0305 19.9917 29.1753 20.337 29.3549 20.6792L29.5686 21.0864L28.1711 23.1829L29.4625 24.475L31.559 23.0768L31.9655 23.2905C32.3053 23.4694 32.6514 23.6141 32.9928 23.721L33.431 23.858L33.9242 26.323H35.7521L36.2452 23.858L36.6834 23.721C37.0248 23.6141 37.3709 23.4694 37.7108 23.2905L38.1172 23.0768L40.2137 24.475L41.9541 22.7339L43.0488 23.8286L40.4104 26.467L38.0104 24.8668C37.8695 24.931 37.7278 24.9907 37.5853 25.0448L37.0202 27.8707H32.6545L32.0901 25.0456Z" fill="white"/>
<path d="M44.9033 15.6235V19.9899L42.0775 20.5551C41.9684 20.8377 41.8398 21.1203 41.6935 21.3997L40.3232 20.679C40.502 20.3375 40.6476 19.9915 40.7529 19.6524L40.8899 19.2134L43.3549 18.7203V16.8932L40.8891 16.4L40.7521 15.961C40.6468 15.6219 40.502 15.2766 40.3224 14.9344L40.1087 14.5272L41.5062 12.4307L40.214 11.1386L38.1167 12.5368L37.7103 12.3223C37.3712 12.1443 37.0259 11.9995 36.6845 11.8926L36.2463 11.7556L35.7531 9.29057H33.9253L33.4321 11.7556L32.9939 11.8926C32.6525 11.9995 32.3064 12.1443 31.9681 12.3223L31.5616 12.5368L29.4644 11.1386L27.7232 12.8797L26.6285 11.785L29.2662 9.14657L31.6669 10.7461C31.8086 10.6818 31.9495 10.623 32.092 10.568L32.6564 7.74219H37.022L37.5872 10.568C37.7296 10.623 37.8705 10.6818 38.0122 10.7461L40.413 9.14657L43.4997 12.2333L41.8994 14.6333C41.9637 14.775 42.0233 14.9166 42.0775 15.0583L44.9033 15.6235Z" fill="white"/>
<path d="M34.0649 29.4189H35.6133V30.9673H34.0649V29.4189Z" fill="white"/>
<path d="M34.0649 32.5166H35.6133V34.065H34.0649V32.5166Z" fill="white"/>
<path d="M34.0649 35.6133H35.6133V37.1617H34.0649V35.6133Z" fill="white"/>
<path d="M12.3872 12.3867H13.9355V13.9351H12.3872V12.3867Z" fill="white"/>
<path d="M12.3872 9.29004H13.9355V10.8384H12.3872V9.29004Z" fill="white"/>
<path d="M12.3872 6.19336H13.9355V7.74175H12.3872V6.19336Z" fill="white"/>
<path d="M-0.000167847 31.6026V25.6878L3.81816 24.9252C3.90719 24.7015 4.00551 24.48 4.11158 24.2617L5.50435 24.9391C5.3588 25.2395 5.23029 25.5461 5.125 25.8527L4.97945 26.2715L1.54822 26.9575V30.3322L4.97945 31.0189L5.125 31.4377C5.23106 31.7443 5.3588 32.0517 5.50435 32.3513L5.69868 32.75L3.75622 35.6633L6.14306 38.0501L9.05713 36.1084L9.45584 36.3028C9.75545 36.4483 10.0628 36.5768 10.3694 36.6821L10.7882 36.8277L11.4734 40.2581H14.8489L15.5356 36.8269L15.9544 36.6813C16.261 36.5753 16.5684 36.4475 16.868 36.302L17.2667 36.1077L20.1807 38.0493L23.0166 35.2142L24.1113 36.309L20.3774 40.0421L17.1374 37.8821C17.053 37.9185 16.9678 37.9541 16.8827 37.9882L16.1186 41.8065H10.2029L9.44035 37.9882C9.35519 37.9541 9.27003 37.9185 9.18565 37.8821L5.94564 40.0421L1.76267 35.8607L3.92345 32.6199C3.88706 32.5355 3.85145 32.4504 3.81738 32.3652L-0.000167847 31.6026Z" fill="white"/>
<path d="M24.5594 21.4292L22.3987 24.6692C22.435 24.7536 22.4707 24.8388 22.5047 24.9239L26.3223 25.6873V31.6029L22.5039 32.3655C22.4149 32.5892 22.3166 32.8106 22.2105 33.0282L20.8178 32.3507C20.9633 32.0511 21.0918 31.7438 21.1971 31.4372L21.3427 31.0184L24.7739 30.3324V26.9569L21.3427 26.2702L21.1971 25.8514C21.091 25.5448 20.9633 25.2382 20.8178 24.9378L20.6234 24.5384L22.5659 21.6258L20.179 19.239L17.2658 21.1807L16.8663 20.9871C16.5674 20.8416 16.2593 20.7131 15.9512 20.6062L15.5339 20.4607L14.8495 17.0318H11.4732L10.7873 20.4615L10.37 20.607C10.0627 20.7138 9.75376 20.8424 9.45492 20.9879L9.05543 21.1815L6.14214 19.2398L3.30627 22.0757L2.21156 20.9809L5.9455 17.2478L9.18627 19.4078C9.26989 19.3714 9.35505 19.3366 9.44021 19.3025L10.2043 15.4834H16.1184L16.8818 19.3017C16.9669 19.3358 17.0521 19.3706 17.1357 19.407L20.3765 17.247L24.5594 21.4292Z" fill="white"/>
</svg>
