<svg width="15" height="15" viewBox="0 0 15 15" fill="none" xmlns="http://www.w3.org/2000/svg">
<path d="M13.7964 9.84578C12.878 9.84578 11.9763 9.70215 11.1218 9.41977C10.6958 9.27449 10.2108 9.38723 9.93285 9.67043L8.24625 10.9436C6.29027 9.89953 5.08543 8.69508 4.05559 6.75379L5.29133 5.11113C5.61238 4.79051 5.72754 4.32215 5.58957 3.8827C5.30598 3.02371 5.16191 2.12242 5.16191 1.20367C5.16195 0.539961 4.62199 0 3.95832 0H1.20359C0.539961 0 0 0.539961 0 1.20359C0 8.81106 6.18898 15 13.7964 15C14.4601 15 15 14.46 15 13.7964V11.0494C15 10.3857 14.46 9.84578 13.7964 9.84578ZM14.1667 13.7964C14.1667 14.0007 14.0007 14.1667 13.7964 14.1667C6.64836 14.1667 0.833359 8.35164 0.833359 1.20363C0.833359 0.999375 0.999375 0.833359 1.20363 0.833359H3.95836C4.16262 0.833359 4.32863 0.999375 4.32863 1.20363C4.32863 2.21152 4.48691 3.2007 4.79656 4.13781C4.83969 4.27617 4.80469 4.41937 4.66473 4.56508L3.23242 6.46199C3.13641 6.58934 3.12133 6.75984 3.19336 6.90184C4.36238 9.19961 5.78289 10.6201 8.09691 11.8058C8.2377 11.8795 8.41023 11.864 8.53801 11.7676L10.4785 10.2975C10.5766 10.1994 10.7235 10.1644 10.8561 10.2096C11.7997 10.5212 12.7889 10.6791 13.7964 10.6791C14.0007 10.6791 14.1667 10.8452 14.1667 11.0494V13.7964Z" fill="#1a73e8"/>
</svg>
