<svg width="44" height="44" viewBox="0 0 44 44" fill="none" xmlns="http://www.w3.org/2000/svg">
<path d="M39.8897 5.63583H37.9071C37.55 5.63583 37.2606 5.9252 37.2606 6.28232C37.2606 6.63945 37.55 6.92882 37.9071 6.92882H39.8897C41.4432 6.92882 42.7071 8.19267 42.7071 9.74616V31.8731H1.29299V9.74607C1.29299 8.19267 2.55684 6.92873 4.11033 6.92873H6.0068C6.36392 6.92873 6.65329 6.63936 6.65329 6.28224C6.65329 5.92511 6.36392 5.63574 6.0068 5.63574H4.11033C1.84389 5.63583 0 7.47963 0 9.74607V32.5195C0 34.7859 1.84389 36.6298 4.11033 36.6298H13.9517V39.917L11.868 42.334H11.0409C10.6838 42.334 10.3944 42.6233 10.3944 42.9805C10.3944 43.3376 10.6838 43.627 11.0409 43.627H12.1643H31.8359H32.8996C33.2567 43.627 33.5461 43.3376 33.5461 42.9805C33.5461 42.6233 33.2567 42.334 32.8996 42.334H32.1322L30.0485 39.917V36.6298H39.8898C42.1562 36.6298 44.0002 34.7859 44.0002 32.5195V9.74607C44 7.47963 42.1561 5.63583 39.8897 5.63583ZM39.8897 35.3368H27.4206C27.0635 35.3368 26.7741 35.6262 26.7741 35.9833C26.7741 36.3404 27.0635 36.6298 27.4206 36.6298H28.7553V39.5107H27.145C26.7879 39.5107 26.4985 39.8001 26.4985 40.1572C26.4985 40.5143 26.7879 40.8037 27.145 40.8037H29.1056L30.4249 42.334H13.5751L14.8944 40.8037H16.855C17.2121 40.8037 17.5015 40.5143 17.5015 40.1572C17.5015 39.8001 17.2121 39.5107 16.855 39.5107H15.2446V36.6298H24.6654C25.0225 36.6298 25.3119 36.3404 25.3119 35.9833C25.3119 35.6262 25.0225 35.3368 24.6654 35.3368H4.11033C2.77941 35.3368 1.66184 34.4087 1.36876 33.166H42.6313C42.3382 34.4087 41.2207 35.3368 39.8897 35.3368Z" fill="white"/>
<path d="M10.7987 6.86323L13.2811 8.06881V15.7167C13.2811 16.4772 13.8486 17.134 14.6011 17.2443L15.2953 17.3461C17.542 17.6754 19.8043 17.8401 22.0667 17.8401C24.3291 17.8401 26.5915 17.6754 28.8381 17.3461L29.5324 17.2443C30.2848 17.134 30.8523 16.4773 30.8523 15.7167V8.02692L32.3196 7.31431V19.199C31.2677 19.484 30.4913 20.4466 30.4913 21.5875V23.1865C30.4913 23.833 31.0173 24.359 31.6638 24.359H34.2684C34.9149 24.359 35.4409 23.833 35.4409 23.1865V21.5875C35.4409 20.4466 34.6647 19.484 33.6127 19.199V6.28173C33.6127 6.03416 33.4712 5.80832 33.2486 5.70023L22.5116 0.485946C22.2015 0.335442 21.8456 0.335356 21.5354 0.486033L10.7987 5.70014C10.576 5.80824 10.4346 6.03408 10.4346 6.28164C10.4346 6.52921 10.5759 6.75514 10.7987 6.86323ZM34.1477 21.5875V23.0659H31.7842V21.5875C31.7842 20.9359 32.3143 20.4057 32.9659 20.4057C33.6176 20.4057 34.1477 20.9359 34.1477 21.5875ZM22.0236 1.68636L31.4861 6.28173L22.0236 10.8769L19.477 9.64031C19.1556 9.48455 18.769 9.61833 18.6131 9.93951C18.4571 10.2608 18.5911 10.6476 18.9123 10.8035L21.5353 12.0771C21.6905 12.1526 21.8571 12.1903 22.0237 12.1903C22.1903 12.1903 22.3567 12.1526 22.5118 12.0772L29.5593 8.65471V15.7166C29.5593 15.8402 29.4671 15.9469 29.3448 15.9648L28.6506 16.0666C24.2818 16.7073 19.8517 16.7073 15.4829 16.0666L14.7887 15.9648C14.6664 15.9469 14.5742 15.8402 14.5742 15.7166V8.69669L16.4186 9.59247C16.74 9.74875 17.1267 9.61454 17.2825 9.29336C17.4385 8.97218 17.3046 8.5854 16.9834 8.42947L12.5609 6.28173L22.0236 1.68636Z" fill="white"/>
<path d="M36.869 14.1826H37.5329C37.8814 14.1826 38.1649 14.4661 38.1649 14.8147V27.9147C38.1649 28.2632 37.8814 28.5467 37.5329 28.5467H11.7588C11.4017 28.5467 11.1123 28.8361 11.1123 29.1932C11.1123 29.5503 11.4017 29.8397 11.7588 29.8397H37.5329C38.5943 29.8397 39.4579 28.9761 39.4579 27.9147V14.8147C39.4579 13.7533 38.5943 12.8896 37.5329 12.8896H36.869C36.5119 12.8896 36.2225 13.179 36.2225 13.5361C36.2225 13.8933 36.5119 14.1826 36.869 14.1826Z" fill="white"/>
<path d="M6.60078 14.1826H11.0813C11.4385 14.1826 11.7278 13.8933 11.7278 13.5361C11.7278 13.179 11.4385 12.8896 11.0813 12.8896H6.60078C5.53941 12.8896 4.67578 13.7533 4.67578 14.8147V27.9147C4.67578 28.9761 5.53941 29.8397 6.60078 29.8397H9.00358C9.36071 29.8397 9.65008 29.5503 9.65008 29.1932C9.65008 28.8361 9.36071 28.5467 9.00358 28.5467H6.60078C6.25228 28.5467 5.96877 28.2632 5.96877 27.9147V14.8147C5.96877 14.4661 6.25228 14.1826 6.60078 14.1826Z" fill="white"/>
<path d="M25.8486 25.9268C26.7203 25.9268 27.4295 25.2177 27.4295 24.346V22.196C27.4295 21.3244 26.7203 20.6152 25.8486 20.6152H18.199C17.3273 20.6152 16.6182 21.3244 16.6182 22.196V24.346C16.6182 25.2177 17.3273 25.9268 18.199 25.9268H25.8486ZM17.9112 24.346V22.196C17.9112 22.0373 18.0403 21.9082 18.199 21.9082H25.8486C26.0073 21.9082 26.1365 22.0373 26.1365 22.196V24.346C26.1365 24.5047 26.0073 24.6338 25.8486 24.6338H18.199C18.0403 24.6338 17.9112 24.5047 17.9112 24.346Z" fill="white"/>
</svg>
