<?xml version="1.0"?>
<svg xmlns="http://www.w3.org/2000/svg" id="Capa_1" enable-background="new 0 0 510.445 510.445" height="512px" viewBox="0 0 510.445 510.445" width="512px"><g><g><path d="m462.761 65.378h-23c-4.143 0-7.5 3.357-7.5 7.5s3.357 7.5 7.5 7.5h23c18.022 0 32.685 14.662 32.685 32.684v256.695h-480.446v-256.696c0-18.021 14.662-32.684 32.684-32.684h22.001c4.143 0 7.5-3.357 7.5-7.5s-3.357-7.5-7.5-7.5h-22.001c-26.293.001-47.684 21.391-47.684 47.684v264.195c0 26.293 21.391 47.684 47.684 47.684h114.17v38.135l-24.173 28.039h-9.595c-4.143 0-7.5 3.357-7.5 7.5s3.357 7.5 7.5 7.5h13.032 228.211 12.34c4.143 0 7.5-3.357 7.5-7.5s-3.357-7.5-7.5-7.5h-8.903l-24.173-28.039v-38.135h114.169c26.293 0 47.685-21.391 47.685-47.684v-264.195c-.002-26.293-21.393-47.683-47.686-47.683zm0 344.562h-144.654c-4.143 0-7.5 3.357-7.5 7.5s3.357 7.5 7.5 7.5h15.484v33.421h-18.681c-4.143 0-7.5 3.357-7.5 7.5s3.357 7.5 7.5 7.5h22.745l15.305 17.753h-195.475l15.305-17.753h22.745c4.143 0 7.5-3.357 7.5-7.5s-3.357-7.5-7.5-7.5h-18.682v-33.421h109.291c4.143 0 7.5-3.357 7.5-7.5s-3.357-7.5-7.5-7.5h-238.46c-15.44 0-28.405-10.767-31.805-25.184h478.688c-3.4 14.417-16.365 25.184-31.806 25.184z" data-original="#000000" class="active-path" data-old_color="#000000" fill="#FFFFFF"/><path d="m125.28 79.624 28.799 13.986v88.723c0 8.823 6.583 16.442 15.313 17.722l8.054 1.181c26.063 3.82 52.309 5.731 78.555 5.731s52.492-1.911 78.555-5.731l8.054-1.181c8.729-1.279 15.313-8.898 15.313-17.722v-89.209l17.022-8.267v137.874c-12.204 3.307-21.21 14.474-21.21 27.71v18.55c0 7.5 6.102 13.602 13.602 13.602h30.216c7.5 0 13.602-6.102 13.602-13.602v-18.55c0-13.236-9.005-24.403-21.209-27.709v-149.854c0-2.872-1.641-5.492-4.224-6.746l-124.56-60.491c-3.598-1.746-7.726-1.747-11.325.001l-124.557 60.489c-2.583 1.254-4.224 3.874-4.224 6.746s1.64 5.493 4.224 6.747zm270.872 170.817v17.151h-27.419v-17.151c0-7.56 6.15-13.71 13.71-13.71s13.709 6.15 13.709 13.71zm-140.652-230.874 109.775 53.311-109.775 53.309-29.542-14.346c-3.729-1.807-8.214-.255-10.023 3.471-1.809 3.727-.255 8.214 3.471 10.023l30.43 14.775c1.8.876 3.733 1.313 5.666 1.313 1.932 0 3.863-.437 5.662-1.312l81.758-39.704v81.925c0 1.434-1.069 2.672-2.488 2.88l-8.054 1.181c-50.682 7.432-102.076 7.432-152.758 0l-8.054-1.181c-1.419-.208-2.488-1.446-2.488-2.88v-81.438l21.397 10.392c3.729 1.813 8.214.256 10.022-3.47 1.81-3.726.256-8.213-3.47-10.022l-51.305-24.916z" data-original="#000000" class="active-path" data-old_color="#000000" fill="#FFFFFF"/><path d="m427.72 164.53h7.702c4.043 0 7.332 3.289 7.332 7.332v151.974c0 4.043-3.289 7.332-7.332 7.332h-299.006c-4.143 0-7.5 3.357-7.5 7.5s3.357 7.5 7.5 7.5h299.006c12.313 0 22.332-10.019 22.332-22.332v-151.974c0-12.313-10.019-22.332-22.332-22.332h-7.702c-4.143 0-7.5 3.357-7.5 7.5s3.357 7.5 7.5 7.5z" data-original="#000000" class="active-path" data-old_color="#000000" fill="#FFFFFF"/><path d="m76.578 164.53h51.979c4.143 0 7.5-3.357 7.5-7.5s-3.357-7.5-7.5-7.5h-51.979c-12.313 0-22.332 10.019-22.332 22.332v151.974c0 12.313 10.019 22.332 22.332 22.332h27.875c4.143 0 7.5-3.357 7.5-7.5s-3.357-7.5-7.5-7.5h-27.875c-4.043 0-7.332-3.289-7.332-7.332v-151.974c0-4.043 3.289-7.332 7.332-7.332z" data-original="#000000" class="active-path" data-old_color="#000000" fill="#FFFFFF"/><path d="m299.872 300.777c10.112 0 18.339-8.227 18.339-18.339v-24.943c0-10.111-8.227-18.338-18.339-18.338h-88.744c-10.112 0-18.339 8.227-18.339 18.338v24.943c0 10.112 8.227 18.339 18.339 18.339zm-92.083-18.339v-24.943c0-1.841 1.498-3.338 3.339-3.338h88.744c1.841 0 3.339 1.497 3.339 3.338v24.943c0 1.841-1.498 3.339-3.339 3.339h-88.744c-1.841 0-3.339-1.498-3.339-3.339z" data-original="#000000" class="active-path" data-old_color="#000000" fill="#FFFFFF"/></g></g> </svg>
